# xmcd
#
# Track frame offsets:
#	150
#	27367
#	52235
#	105273
#	145134
#	185342
#	198928
#	218217
#	253890
#
# Disc length: 3813 seconds
#
# Revision: 1
# Processed by: cddbd v1.5.2PL0 Copyright (c) Steve Scherf et al.
# Submitted via: audiograbber 1.83.01
#
DISCID=820ee309
DTITLE=Grateful Dead - 76-06-03 Paramount Theatre, Portland OR
DYEAR=1900
DGENRE=
TTITLE0=Might As Well
TTITLE1=Cassidy
TTITLE2=Row Jimmy
TTITLE3=Looks Like Rain
TTITLE4=They Love Each Other
TTITLE5=Lazy Lightening
TTITLE6=Supplication
TTITLE7=Candyman
TTITLE8=The Music Never Stopped
EXTD=
EXTT0=
EXTT1=
EXTT2=
EXTT3=
EXTT4=
EXTT5=
EXTT6=
EXTT7=
EXTT8=
PLAYORDER=
